<svg xmlns:xlink="http://www.w3.org/1999/xlink" width="24" height="24" viewBox="0 0 24 24" fill="none" xmlns="http://www.w3.org/2000/svg" aria-hidden="false"><title>LinkedIn</title><path fill-rule="evenodd" clip-rule="evenodd" d="M19.6675 3C20.4019 3 21 3.581 21 4.297V19.7014C21 20.4181 20.4019 21 19.6675 21H4.32859C3.59561 21 3 20.4181 3 19.7014V4.297C3 3.581 3.59561 3 4.32859 3H19.6675ZM7.00414 5.47825C6.14841 5.47825 5.45593 6.17188 5.45593 7.02563C5.45593 7.88025 6.14841 8.57387 7.00414 8.57387C7.85761 8.57387 8.55135 7.88025 8.55135 7.02563C8.55135 6.17188 7.85761 5.47825 7.00414 5.47825ZM5.66868 18.3384H8.33848V9.74813H5.66868V18.3384ZM10.0131 9.74813V18.3384H12.6805V14.0887C12.6805 12.9685 12.8939 11.8834 14.2828 11.8834C15.6518 11.8834 15.6701 13.1648 15.6701 14.1609V18.3384H18.3381V13.6264C18.3381 11.3139 17.839 9.53463 15.1354 9.53463C13.8367 9.53463 12.9657 10.2466 12.6094 10.922H12.5736V9.74813H10.0131Z" fill="#191919"></path></svg>